<?xml version="1.0" standalone="no"?>
<!DOCTYPE svg PUBLIC "-//W3C//DTD SVG 20010904//EN"
 "http://www.w3.org/TR/2001/REC-SVG-20010904/DTD/svg10.dtd">
<svg version="1.0" xmlns="http://www.w3.org/2000/svg"
 width="640.000000pt" height="480.000000pt" viewBox="0 0 640.000000 480.000000"
 preserveAspectRatio="xMidYMid meet">

<g transform="translate(0.000000,480.000000) scale(0.100000,-0.100000)"
fill="#000000" stroke="none">
<path d="M2310 3043 c-25 -32 -20 -69 12 -95 17 -15 41 -18 148 -18 l127 0 48
-122 c26 -68 51 -132 56 -143 4 -11 25 -63 45 -115 29 -78 113 -292 131 -336
2 -7 -11 -17 -30 -23 -43 -15 -105 -73 -123 -117 -18 -42 -18 -125 -1 -167 19
-44 87 -103 134 -116 24 -7 212 -11 524 -11 l486 0 23 24 c27 30 29 69 5 96
-18 19 -34 20 -506 20 -352 0 -495 3 -514 12 -45 20 -46 94 -2 122 12 8 49 20
82 26 100 18 412 67 730 116 218 33 227 38 228 133 0 34 4 64 9 67 4 3 5 11 1
17 -4 7 -6 84 -4 172 4 223 28 206 -309 220 -80 3 -161 8 -180 10 -98 10 -248
20 -470 31 -52 3 -111 7 -130 9 -19 2 -40 4 -47 4 -13 1 -31 36 -63 123 -32
86 -37 88 -226 88 l-163 0 -21 -27z m754 -338 c36 -2 41 -5 52 -39 7 -20 16
-64 20 -98 l7 -61 -78 6 c-43 4 -98 7 -122 7 -38 0 -45 3 -53 28 -6 15 -15 36
-20 47 -14 28 -40 105 -40 117 0 6 36 7 98 2 53 -4 115 -8 136 -9z m373 -29
c2 -2 7 -38 10 -79 l6 -75 -109 -4 c-60 -2 -114 -2 -121 0 -11 3 -20 37 -39
136 l-7 39 128 -6 c70 -4 130 -8 132 -11z m229 -10 c50 -3 98 -8 105 -11 10
-4 14 -20 13 -53 -3 -88 2 -82 -66 -82 -35 0 -93 3 -129 6 l-67 7 -7 63 c-8
74 -3 85 33 79 15 -2 68 -6 118 -9z m102 -215 c9 -1 12 -16 9 -53 l-3 -52 -73
-12 c-41 -7 -92 -14 -115 -16 l-41 -3 -9 56 c-5 32 -7 63 -4 70 4 11 31 14
114 13 60 -1 115 -2 122 -3z m-590 -76 c24 -121 25 -118 -38 -129 -30 -5 -73
-10 -94 -10 -35 -1 -40 2 -48 29 -5 17 -13 39 -18 50 -36 84 -50 119 -50 127
0 5 52 7 117 6 l117 -3 14 -70z m292 31 c0 -24 3 -57 6 -73 l6 -29 -94 -17
c-52 -9 -101 -17 -109 -17 -15 0 -23 27 -46 153 l-5 27 121 0 121 0 0 -44z"/>
<path d="M2850 1681 c-52 -52 -52 -126 1 -177 25 -24 39 -29 77 -29 59 0 96
26 115 80 28 82 -26 155 -114 155 -42 0 -55 -5 -79 -29z"/>
<path d="M3678 1690 c-41 -32 -61 -84 -48 -124 17 -51 61 -87 114 -93 43 -5
48 -3 86 35 32 32 40 47 40 77 0 41 -31 99 -60 115 -32 17 -105 12 -132 -10z"/>
</g>
</svg>
