<?xml version="1.0" standalone="no"?>
<!DOCTYPE svg PUBLIC "-//W3C//DTD SVG 20010904//EN"
 "http://www.w3.org/TR/2001/REC-SVG-20010904/DTD/svg10.dtd">
<svg version="1.0" xmlns="http://www.w3.org/2000/svg"
 width="640.000000pt" height="480.000000pt" viewBox="0 0 640.000000 480.000000"
 preserveAspectRatio="xMidYMid meet">

<g transform="translate(0.000000,480.000000) scale(0.100000,-0.100000)"
fill="#000000" stroke="none">
<path d="M1710 4139 c-47 -10 -99 -18 -117 -19 -19 0 -44 -10 -62 -26 -28 -23
-31 -32 -31 -81 0 -30 5 -64 12 -76 8 -15 12 -91 13 -247 0 -279 10 -326 90
-423 45 -54 147 -136 186 -149 6 -2 -3 -28 -25 -65 -48 -81 -87 -169 -126
-278 -32 -93 -70 -250 -70 -296 0 -19 -11 -34 -40 -54 -22 -15 -72 -61 -110
-102 -117 -122 -175 -227 -212 -382 -17 -72 -19 -109 -16 -226 4 -124 8 -150
35 -227 75 -217 240 -399 445 -492 120 -54 193 -68 378 -72 214 -3 346 -12
500 -31 180 -22 1060 -22 1240 0 154 19 286 28 500 31 185 4 258 18 378 72
100 45 186 109 266 196 83 89 139 182 179 296 27 77 31 103 35 227 3 117 1
154 -16 226 -37 155 -95 260 -212 382 -38 41 -88 87 -110 102 -29 20 -40 35
-40 54 0 46 -38 203 -70 296 -39 109 -78 197 -126 278 -22 37 -31 63 -25 65
39 13 141 95 186 149 80 97 90 144 90 423 1 156 5 232 13 247 7 12 12 46 12
76 0 49 -3 58 -31 81 -17 15 -43 26 -59 26 -15 0 -72 9 -127 20 -132 27 -401
29 -465 3 -151 -59 -330 -221 -393 -354 l-17 -35 -107 32 c-151 46 -289 64
-481 64 -192 0 -330 -18 -481 -64 l-107 -32 -17 35 c-63 133 -242 295 -393
354 -61 24 -352 22 -472 -4z m478 -71 c177 -92 306 -225 351 -361 7 -20 15
-37 17 -37 3 0 50 16 105 35 190 66 277 79 519 79 242 0 329 -13 519 -79 55
-19 102 -35 105 -35 2 0 10 17 17 37 45 136 174 269 351 361 51 26 57 27 218
27 155 0 346 -22 390 -44 20 -11 24 -56 8 -95 -9 -22 -13 -92 -13 -251 -1
-259 -11 -309 -80 -397 -45 -58 -125 -116 -189 -139 -21 -8 -40 -19 -43 -25
-2 -7 15 -43 38 -80 100 -164 188 -396 213 -565 7 -49 15 -91 17 -93 2 -1 25
-17 50 -34 57 -38 151 -139 197 -211 255 -398 94 -921 -344 -1114 -97 -43
-181 -57 -357 -62 -233 -6 -366 -14 -502 -32 -173 -23 -1017 -23 -1190 0 -136
18 -269 26 -502 32 -97 3 -189 11 -229 20 -345 80 -593 392 -594 745 0 141 44
289 122 411 46 72 140 173 197 211 25 17 48 33 50 34 2 2 10 44 17 93 25 169
113 401 213 565 23 37 40 73 38 80 -3 6 -22 17 -43 25 -64 23 -144 81 -189
139 -69 88 -79 138 -80 397 0 159 -4 229 -13 251 -16 39 -12 84 8 95 8 4 56
13 105 20 50 7 99 16 110 20 11 5 92 7 180 6 154 -2 163 -3 213 -29z"/>
<path d="M2606 2529 c-35 -41 -34 -83 3 -120 37 -37 79 -38 120 -3 65 54 28
154 -58 154 -32 0 -44 -6 -65 -31z m104 -19 c0 -5 -2 -10 -4 -10 -3 0 -8 5
-11 10 -3 6 -1 10 4 10 6 0 11 -4 11 -10z"/>
<path d="M3659 2522 c-75 -67 -8 -183 88 -151 70 23 83 121 20 159 -44 27 -71
25 -108 -8z m101 -22 c0 -5 -5 -10 -11 -10 -5 0 -7 5 -4 10 3 6 8 10 11 10 2
0 4 -4 4 -10z"/>
<path d="M3084 2461 c-127 -21 -232 -78 -324 -177 -84 -91 -140 -228 -140
-340 0 -62 36 -189 71 -250 36 -64 147 -169 216 -207 69 -37 191 -67 273 -67
82 0 204 30 273 67 69 38 180 143 216 207 35 61 71 188 71 250 0 59 -26 158
-59 226 -55 114 -193 231 -317 270 -73 22 -207 32 -280 21z m214 -66 c94 -22
179 -70 247 -139 66 -67 96 -120 120 -211 18 -70 19 -115 4 -187 -55 -261
-345 -433 -613 -363 -324 85 -472 422 -301 690 108 170 337 258 543 210z"/>
<path d="M3072 2263 c-47 -16 -67 -43 -56 -76 10 -35 93 -126 120 -133 23 -6
24 -10 24 -83 l0 -76 -43 -17 c-23 -10 -66 -18 -95 -18 -49 0 -56 3 -98 46
-27 26 -52 43 -60 40 -20 -8 -17 -25 12 -63 30 -40 75 -65 129 -72 39 -6 40
-7 45 -51 7 -61 41 -107 91 -121 84 -26 158 27 169 121 5 44 6 45 45 51 55 7
99 32 131 74 25 33 27 65 5 65 -6 0 -31 -20 -55 -45 -42 -42 -49 -45 -98 -45
-29 0 -72 8 -95 18 l-43 17 0 76 c0 73 1 77 24 83 27 7 110 98 120 133 4 12 2
31 -3 42 -25 45 -180 66 -269 34z m161 -447 c41 -31 1 -126 -53 -126 -54 0
-94 95 -52 126 22 17 82 17 105 0z"/>
</g>
</svg>
